<?xml version="1.0" standalone="no"?>
<!DOCTYPE svg PUBLIC "-//W3C//DTD SVG 20010904//EN"
 "http://www.w3.org/TR/2001/REC-SVG-20010904/DTD/svg10.dtd">
<svg version="1.0" xmlns="http://www.w3.org/2000/svg"
 width="512.000000pt" height="512.000000pt" viewBox="0 0 512.000000 512.000000"
 preserveAspectRatio="xMidYMid meet">
<metadata>
Created by potrace 1.15, written by Peter Selinger 2001-2017
</metadata>
<g transform="translate(0.000000,512.000000) scale(0.100000,-0.100000)"
fill="rgba(241, 159, 8, 0.812)" stroke="none">
<path d="M2260 4624 c-345 -52 -682 -194 -964 -407 -104 -78 -315 -289 -393
-393 -216 -286 -357 -621 -407 -971 -21 -148 -21 -438 0 -586 50 -350 191
-685 407 -971 78 -104 289 -315 393 -393 286 -216 621 -357 971 -407 148 -21
438 -21 586 0 350 50 685 191 971 407 104 78 315 289 393 393 216 286 357 621
407 971 21 148 21 438 0 586 -50 350 -191 685 -407 971 -78 104 -289 315 -393
393 -286 216 -621 357 -971 407 -140 20 -458 20 -593 0z m552 -329 c772 -116
1367 -711 1483 -1483 30 -203 16 -484 -36 -684 -157 -618 -649 -1110 -1267
-1267 -266 -68 -598 -68 -864 0 -618 157 -1110 649 -1267 1267 -68 266 -68
598 0 864 173 680 740 1193 1436 1302 123 19 390 20 515 1z"/>
<path d="M1837 3283 l-117 -118 302 -302 303 -303 -303 -303 -302 -302 117
-118 118 -117 302 302 303 303 303 -303 302 -302 118 117 117 118 -302 302
-303 303 303 303 302 302 -117 118 -118 117 -302 -302 -303 -303 -303 303
-302 302 -118 -117z"/>
</g>
</svg>
